<?xml version="1.0" encoding="iso-8859-1"?>
<!-- Generator: Adobe Illustrator 19.0.0, SVG Export Plug-In . SVG Version: 6.00 Build 0)  -->
<svg version="1.1" id="Capa_1" xmlns="http://www.w3.org/2000/svg" xmlns:xlink="http://www.w3.org/1999/xlink" x="0px" y="0px"
	 viewBox="0 0 512.001 512.001" style="enable-background:new 0 0 512.001 512.001;" xml:space="preserve">
<linearGradient id="SVGID_1_" gradientUnits="userSpaceOnUse" x1="256.0004" y1="488.0019" x2="256.0004" y2="28.0009" gradientTransform="matrix(1 0 0 -1 0 514.0017)">
	<stop  offset="0" style="stop-color:#2AF598"/>
	<stop  offset="1" style="stop-color:#009EFD"/>
</linearGradient>
<path style="fill:url(#SVGID_1_);" d="M198.914,314.088c0,5.296,2.621,10.245,7.012,13.237c5.313,3.62,9.813,5.477,11.536,5.845
	c7.772,1.136,96.751,10.647,155.096,16.81l-4.201,39.779c-45.452-4.801-151.835-16.089-157.999-17.223
	c-10.866-1.999-21.554-8.475-26.957-12.156c-5.149-3.509-9.581-7.805-13.224-12.647l-0.185,0.188L74.01,253.727
	C70.243,250.03,65.276,248,60.006,248c-0.064,0-0.129,0.001-0.193,0.001c-5.342,0.051-10.344,2.178-14.085,5.991
	c-3.743,3.813-5.776,8.855-5.726,14.197c0.05,5.342,2.178,10.345,5.99,14.086l148.437,145.67
	c11.863,11.644,27.551,18.056,44.173,18.056h273.399v40H238.602c-27.166,0-52.804-10.479-72.191-29.507L17.974,310.825
	c-11.438-11.226-17.82-26.233-17.971-42.26c-0.151-16.025,5.948-31.15,17.174-42.589c11.224-11.438,26.232-17.822,42.259-17.973
	c15.997-0.129,31.152,5.949,42.591,17.175l63.577,62.392c9.469-17.538,28.02-29.482,49.31-29.482l141.328-0.036
	c0.98,0.003-0.999-0.012-0.005,0h0.005l0,0c48.742,0.588,95.458,15.894,135.1,44.261l20.659,14.783v49.187l-43.937-31.44
	c-32.952-23.58-71.784-36.303-112.3-36.793v0.001c-0.822-0.011-1.647-0.018-2.467-0.015l-138.376,0.053
	C206.092,298.088,198.914,305.266,198.914,314.088z M126.015,186l-52.014-49.414v-20.019L125.864,66h154.165
	c18.752-24.928,48.422-40,79.972-40c55.141,0,100,44.859,100,100s-44.859,100-100,100c-31.55,0-61.22-15.072-79.972-40L126.015,186
	L126.015,186z M121.283,126.332L141.986,146h28.665l26.125-27.5l28.947,27.5h76.541l5.777,9.982
	C318.756,174.498,338.666,186,360.001,186c33.084,0,60-26.916,60-60s-26.916-60-60-60c-21.335,0-41.245,11.502-51.96,30.018
	L302.264,106H142.138L121.283,126.332z M380.001,146.001c11.046,0,20-8.954,20-20s-8.954-20-20-20s-20,8.954-20,20
	S368.955,146.001,380.001,146.001z"/>
<g>
</g>
<g>
</g>
<g>
</g>
<g>
</g>
<g>
</g>
<g>
</g>
<g>
</g>
<g>
</g>
<g>
</g>
<g>
</g>
<g>
</g>
<g>
</g>
<g>
</g>
<g>
</g>
<g>
</g>
</svg>
