<?xml version="1.0"?>
<svg xmlns="http://www.w3.org/2000/svg" id="Layer_1" data-name="Layer 1" viewBox="0 0 512 512" width="512" height="512"><title>Calander</title><path d="M189.679,27.521A95.787,95.787,0,0,0,83.915,122.763v47.8a7,7,0,0,0,3.222-.837,6.667,6.667,0,0,0,3.541-5.646l1.7-37.313a7,7,0,0,1,7.352-6.673c.057,0,1.552.076,4.22.122A95.908,95.908,0,0,1,189.679,27.521Z" style="fill:#d4e1f4"/><path d="M112.424,238.593q-.063-.334-.158-.66l-5.145-17.7a7,7,0,0,0-5.691-5.7,18.855,18.855,0,0,1-15.018-23.04,12.136,12.136,0,0,1,8.567-8.981,20.762,20.762,0,0,0,29.685-17.8l1.387-30.464c2.286.021,5.081.018,8.3-.039-.337-.285-.679-.561-1.015-.85-11.7.832-21.257.946-27.289.889l-1.387,30.464a20.712,20.712,0,0,1-29.685,17.8,12.136,12.136,0,0,0-8.567,8.981,18.855,18.855,0,0,0,15.018,23.04,7,7,0,0,1,5.691,5.7l5.145,17.7q.094.326.158.66a88.584,88.584,0,0,0,97.233,71.777A88.82,88.82,0,0,1,112.424,238.593Z" style="fill:#d4e1f4"/><path d="M160.95,343.575V323.229a102.553,102.553,0,0,1-20-5.858v26.2a89.9,89.9,0,0,0,48.707,8.19A89.185,89.185,0,0,1,160.95,343.575Z" style="fill:#d4e1f4"/><path d="M48.048,412.437q.207-.884.447-1.76c4.092-14.9,15.66-26.755,30.945-31.71l61.2-19.842q-4.275-1.683-8.414-3.757l-72.784,23.6c-15.285,4.955-26.853,16.809-30.945,31.71q-.242.877-.447,1.76A43.4,43.4,0,0,0,27,422.383v44.6H47v-44.6A43.4,43.4,0,0,1,48.048,412.437Z" style="fill:#d4e1f4"/><path d="M365.118,309.161h-1.846v.054C363.883,309.181,364.5,309.161,365.118,309.161Z" style="fill:#d4e1f4"/><path d="M349.272,313.224v-4.063h-4.154a33.037,33.037,0,0,0-33,33v14.7h20v-14.7A33.026,33.026,0,0,1,349.272,313.224Z" style="fill:#d4e1f4"/><path d="M332.118,459.468V370.857h-20v88.611a33.037,33.037,0,0,0,33,33h20A33.037,33.037,0,0,1,332.118,459.468Z" style="fill:#d4e1f4"/><path d="M307.844,480.979v-14H27v-44.6a43.352,43.352,0,0,1,1.047-9.943c.138-.592.288-1.181.448-1.763,4.092-14.9,15.66-26.755,30.945-31.711l72.784-23.6a103.994,103.994,0,0,0,92.867,0l72.784,23.6c1.5.488,3,1.055,4.45,1.686l5.591-12.835c-1.865-.812-3.791-1.542-5.723-2.168l-70.828-22.964V310.366a102.7,102.7,0,0,0,48.22-68.846l4.156-14.3a32.866,32.866,0,0,0,21.76-39.063,26.186,26.186,0,0,0-17.059-18.723V122.763a109.763,109.763,0,0,0-219.526,0v46.66a26.186,26.186,0,0,0-17.1,18.74,32.87,32.87,0,0,0,21.761,39.062l4.155,14.3a102.7,102.7,0,0,0,48.221,68.846v32.319L55.123,365.649c-19.783,6.414-34.785,21.861-40.129,41.323q-.312,1.137-.581,2.287A57.139,57.139,0,0,0,13,422.383v51.6a7,7,0,0,0,7,7Zm-120.3-356.188c8.93,9.5,36.973,34.724,86.9,39.855v3.605c-19.325-.456-76.464-4.654-121.939-36.9l.632-.082A298.247,298.247,0,0,0,187.542,124.791ZM82.916,122.763a95.763,95.763,0,0,1,191.526,0v27.785c-36.665-4.162-60.156-20.4-71.319-30.248,18.725-6.144,34.673-14.221,47.67-24.189A7,7,0,0,0,242.274,85c-26.565,20.374-63.982,28.839-90.695,32.354a327.46,327.46,0,0,1-52.85,2.737,7,7,0,0,0-7.352,6.672l-1.7,37.313a6.667,6.667,0,0,1-3.541,5.647,7,7,0,0,1-3.221.837Zm8.508,115.83a6.759,6.759,0,0,0-.158-.661l-5.145-17.7a7,7,0,0,0-5.691-5.7,18.857,18.857,0,0,1-15.018-23.042,12.135,12.135,0,0,1,8.567-8.98,20.762,20.762,0,0,0,29.685-17.8l1.387-30.463c6.04.053,15.592-.057,27.289-.89,31.215,26.77,69.543,38.645,96.493,43.9,29.77,5.8,51.948,5.033,52.878,5,.155-.006.307-.025.46-.041a12.249,12.249,0,0,1,9.732,9.275,18.856,18.856,0,0,1-15.018,23.041,7,7,0,0,0-5.691,5.7l-5.145,17.7a6.759,6.759,0,0,0-.158.661,88.762,88.762,0,0,1-174.467,0Zm87.234,86.36a102.4,102.4,0,0,0,38.707-7.582v26.2a90.044,90.044,0,0,1-77.415,0v-26.2A102.406,102.406,0,0,0,178.658,324.953Z" style="fill:#0635c9"/><path d="M455.118,295.161h-4.154v-8.335a7,7,0,0,0-14,0v8.335H363.272v-8.335a7,7,0,0,0-14,0v8.335h-4.154a47.053,47.053,0,0,0-47,47V459.468a47.053,47.053,0,0,0,47,47h110a47.053,47.053,0,0,0,47-47V342.161A47.053,47.053,0,0,0,455.118,295.161Zm-110,14h4.154V324.5a7,7,0,0,0,14,0V309.161h73.692V324.5a7,7,0,0,0,14,0V309.161h4.154a33.037,33.037,0,0,1,33,33v14.7h-176v-14.7A33.037,33.037,0,0,1,345.118,309.161Zm110,183.307h-110a33.037,33.037,0,0,1-33-33V370.857h176v88.611A33.037,33.037,0,0,1,455.118,492.468Z" style="fill:#1ae5be"/><path d="M454.926,402.394H345.311a7,7,0,1,0,0,14H454.926a7,7,0,0,0,0-14Z" style="fill:#1ae5be"/><path d="M408.715,448.932h-63.4a7,7,0,1,0,0,14h63.4a7,7,0,0,0,0-14Z" style="fill:#1ae5be"/></svg>
