<?xml version="1.0" encoding="iso-8859-1"?>
<!-- Generator: Adobe Illustrator 19.0.0, SVG Export Plug-In . SVG Version: 6.00 Build 0)  -->
<svg version="1.1" id="Capa_1" xmlns="http://www.w3.org/2000/svg" xmlns:xlink="http://www.w3.org/1999/xlink" x="0px" y="0px"
	 viewBox="0 0 481.829 481.829" style="enable-background:new 0 0 481.829 481.829;" xml:space="preserve">
<g>
	
		<linearGradient id="SVGID_1_" gradientUnits="userSpaceOnUse" x1="-5.7068" y1="602.6951" x2="-5.7068" y2="510.3541" gradientTransform="matrix(5.2245 0 0 -5.2245 270.7295 3158.1995)">
		<stop  offset="0" style="stop-color:#00EFD1"/>
		<stop  offset="1" style="stop-color:#00ACEA"/>
	</linearGradient>
	<path style="fill:url(#SVGID_1_);" d="M240.914,198.661c32.914,0,59.559-26.645,59.559-59.559s-26.645-59.559-59.559-59.559
		s-59.559,26.645-59.559,59.559S208,198.661,240.914,198.661z M240.914,110.89c15.673,0,28.212,12.539,28.212,28.212
		s-12.539,28.212-28.212,28.212s-28.212-12.539-28.212-28.212C212.702,123.429,225.241,110.89,240.914,110.89z"/>
	
		<linearGradient id="SVGID_2_" gradientUnits="userSpaceOnUse" x1="-5.7068" y1="602.6951" x2="-5.7068" y2="510.3541" gradientTransform="matrix(5.2245 0 0 -5.2245 270.7295 3158.1995)">
		<stop  offset="0" style="stop-color:#00EFD1"/>
		<stop  offset="1" style="stop-color:#00ACEA"/>
	</linearGradient>
	<path style="fill:url(#SVGID_2_);" d="M442.057,188.735l-61.127-18.286c1.567-9.404,2.612-18.808,2.612-28.212
		c0-38.139-15.151-73.665-41.796-100.31c-55.902-55.902-146.286-55.902-201.665,0c-33.437,33.437-47.543,82.024-39.184,126.955
		l-61.127,19.853c-6.269,2.09-10.971,8.359-10.971,15.151v251.82c0,5.224,2.612,9.927,6.269,12.539
		c2.612,2.09,5.747,3.135,9.404,3.135c1.567,0,3.135,0,4.702-0.522l92.473-30.302l92.996,40.229c2.09,1.045,4.18,1.045,6.269,1.045
		c2.09,0,4.18-0.522,6.269-1.567l0,0l92.996-39.706l92.473,29.78c1.567,0.522,3.135,0.522,4.702,0.522
		c3.135,0,6.269-1.045,9.404-3.135c4.18-3.135,6.269-7.837,6.269-12.539V203.886C453.029,196.571,448.326,190.825,442.057,188.735z
		 M256.588,328.751l66.873-66.873v151.51l-66.873,29.257V328.751z M162.024,63.869c21.943-21.943,50.155-32.392,78.89-32.392
		s56.947,10.971,78.89,32.392c20.898,20.898,32.392,48.588,32.392,78.367s-11.494,57.992-32.392,79.412l-78.89,78.367l-78.89-78.89
		c-7.837-7.837-14.106-16.196-19.331-25.6C119.706,152.686,127.543,98.351,162.024,63.869z M60.147,214.857l49.633-16.196
		c1.567,4.18,3.657,7.837,5.747,12.016c3.657,6.269,7.314,12.016,11.494,17.763v183.38l-66.873,21.943
		C60.147,433.763,60.147,214.857,60.147,214.857z M158.367,413.388v-151.51l66.873,66.873v113.894L158.367,413.388z
		 M421.682,433.763l-66.874-21.943v-183.38c6.792-8.882,12.539-18.286,16.718-28.212l50.155,15.151
		C421.682,215.38,421.682,433.763,421.682,433.763z"/>
</g>
<g>
</g>
<g>
</g>
<g>
</g>
<g>
</g>
<g>
</g>
<g>
</g>
<g>
</g>
<g>
</g>
<g>
</g>
<g>
</g>
<g>
</g>
<g>
</g>
<g>
</g>
<g>
</g>
<g>
</g>
</svg>
