<?xml version="1.0" encoding="utf-8"?>
<!-- Generator: Adobe Illustrator 19.0.0, SVG Export Plug-In . SVG Version: 6.00 Build 0)  -->
<svg xmlns="http://www.w3.org/2000/svg" xmlns:xlink="http://www.w3.org/1999/xlink" version="1.1" id="Layer_1" x="0px" y="0px" viewBox="0 2 98 98" style="enable-background:new 0 2 98 98;" xml:space="preserve" width="512" height="512">
<style type="text/css">
	.st0{fill:url(#SVGID_1_);}
	.st1{fill:url(#SVGID_2_);}
</style>
<g>
	
		<linearGradient id="SVGID_1_" gradientUnits="userSpaceOnUse" x1="49" y1="95.6667" x2="49" y2="11.666" gradientTransform="matrix(1 0 0 -1 0 104)">
		<stop offset="0" style="stop-color:#00EFD1"/>
		<stop offset="1" style="stop-color:#00ACEA"/>
	</linearGradient>
	<path class="st0" d="M49,50.7c6.7,0,12.1-5.4,12.1-12.1S55.7,26.5,49,26.5s-12.1,5.4-12.1,12.1S42.3,50.7,49,50.7z M49,32.5   c3.4,0,6.1,2.7,6.1,6.1s-2.7,6.1-6.1,6.1c-3.4,0-6.1-2.7-6.1-6.1S45.6,32.5,49,32.5z"/>
	
		<linearGradient id="SVGID_2_" gradientUnits="userSpaceOnUse" x1="48.9998" y1="95.6667" x2="48.9998" y2="11.666" gradientTransform="matrix(1 0 0 -1 0 104)">
		<stop offset="0" style="stop-color:#00EFD1"/>
		<stop offset="1" style="stop-color:#00ACEA"/>
	</linearGradient>
	<path class="st1" d="M85.1,91.2l-3-26.7c-0.2-1.5-1.5-2.7-3-2.7h-8.7C80.8,50,80.6,31.6,69.6,20.2c-5.5-5.6-12.8-8.8-20.6-8.8   s-15.1,3.2-20.6,8.9c-11,11.4-11.3,29.8-0.8,41.6h-8.7c-1.5,0-2.8,1.1-3,2.7l-3,26.7c-0.1,0.8,0.2,1.7,0.7,2.3c0.6,0.6,1.4,1,2.2,1   H82c0.9,0,1.7-0.4,2.2-1C84.9,92.9,85.2,92.1,85.1,91.2z M32.8,24.5c4.4-4.5,10.1-7,16.2-7s11.9,2.5,16.2,7   c9.1,9.4,9.1,24.7,0,34.1L49,75.5L32.8,58.6C23.7,49.2,23.7,33.9,32.8,24.5z M19.3,88.6l2.3-20.7h11.8L46.8,82   c0.6,0.6,1.3,0.9,2.2,0.9s1.6-0.3,2.2-0.9l13.5-14.1h11.8l2.3,20.7C78.8,88.6,19.3,88.6,19.3,88.6z"/>
</g>
</svg>
