<?xml version="1.0" encoding="utf-8"?>
<!-- Generator: Adobe Illustrator 19.0.0, SVG Export Plug-In . SVG Version: 6.00 Build 0)  -->
<svg xmlns="http://www.w3.org/2000/svg" xmlns:xlink="http://www.w3.org/1999/xlink" version="1.1" id="Layer_1" x="0px" y="0px" viewBox="0 2 98 98" style="enable-background:new 0 2 98 98;" xml:space="preserve" width="512" height="512">
<style type="text/css">
	.st0{fill:url(#SVGID_1_);}
	.st1{fill:url(#SVGID_2_);}
</style>
<g>
	<linearGradient id="SVGID_1_" gradientUnits="userSpaceOnUse" x1="48.9538" y1="7.5" x2="48.9538" y2="95.1724">
		<stop offset="0" style="stop-color:#00EFD1"/>
		<stop offset="1" style="stop-color:#00ACEA"/>
	</linearGradient>
	<path class="st0" d="M68.4,7H29.5c-5,0-9,4-9,9v74c0,5,4,9,9,9h39c2.4,0,4.7-1,6.4-2.7c1.7-1.7,2.6-4,2.5-6.3V16   C77.4,11,73.4,7,68.4,7z M26.5,16c0-1.7,1.4-3,3-3h38.9c1.7,0,3,1.3,3,3v2.7H26.5V16z M26.5,24.7h44.9v51.9H26.5V24.7z M71.5,90.1   c0,0.7-0.3,1.5-0.8,2c-0.6,0.6-1.3,0.9-2.1,0.9h-39c-1.7,0-3-1.3-3-3v-7.4h44.9V90.1z"/>
	<linearGradient id="SVGID_2_" gradientUnits="userSpaceOnUse" x1="49" y1="7.5" x2="49" y2="95.1724">
		<stop offset="0" style="stop-color:#00EFD1"/>
		<stop offset="1" style="stop-color:#00ACEA"/>
	</linearGradient>
	<path class="st1" d="M46.5,90.7h5c1.7,0,3-1.3,3-3c0-1.7-1.3-3-3-3h-5c-1.7,0-3,1.3-3,3C43.5,89.4,44.8,90.7,46.5,90.7z"/>
</g>
</svg>
